<svg xmlns="http://www.w3.org/2000/svg" viewBox="-12 14 662 132" role="img" aria-label="Hyllah">
  <title>Hyllah</title>
  <g transform="translate(0,0)" fill="#eaeaea" color="#eaeaea"><rect x="0.0" y="30.0" width="26.0" height="54.0"/><rect x="0.0" y="94.0" width="26.0" height="36.0"/><rect x="62.0" y="30.0" width="26.0" height="54.0"/><rect x="62.0" y="94.0" width="26.0" height="36.0"/><rect x="26.0" y="60.0" width="36.0" height="18.0"/></g><g transform="translate(110,0)" fill="#eaeaea" color="#eaeaea"><polygon points="0,30 26,30 57.0,62 31.0,62"/><polygon points="62,30 88,30 57.0,62 31.0,62"/><rect x="31.0" y="62.0" width="26.0" height="22.0"/><rect x="31.0" y="94.0" width="26.0" height="36.0"/></g><g transform="translate(220,0)" fill="#eaeaea" color="#eaeaea"><rect x="0.0" y="30.0" width="26.0" height="54.0"/><rect x="0.0" y="94.0" width="26.0" height="36.0"/><rect x="0.0" y="104.0" width="82.0" height="26.0"/></g><g transform="translate(330,0)" fill="#eaeaea" color="#eaeaea"><rect x="0.0" y="30.0" width="26.0" height="54.0"/><rect x="0.0" y="94.0" width="26.0" height="36.0"/><rect x="0.0" y="104.0" width="82.0" height="26.0"/></g><g class="hyllah-a" transform="translate(440,0)" fill="#e85d3a" color="#e85d3a"><path d="M 0,130 L 0,60 A 44.0,44.0 0 0 1 88,60 L 88,130 L 62,130 L 62,60 A 18.0,18.0 0 0 0 26,60 L 26,130 Z"/><rect x="26.0" y="78.0" width="36.0" height="13.0"/><rect x="26.0" y="104.0" width="36.0" height="13.0"/></g><g transform="translate(550,0)" fill="#eaeaea" color="#eaeaea"><rect x="0.0" y="30.0" width="26.0" height="54.0"/><rect x="0.0" y="94.0" width="26.0" height="36.0"/><rect x="62.0" y="30.0" width="26.0" height="54.0"/><rect x="62.0" y="94.0" width="26.0" height="36.0"/><rect x="26.0" y="60.0" width="36.0" height="18.0"/></g>
</svg>